<?xml version="1.0" encoding="UTF-8" standalone="no"?>
<!-- Generator: Adobe Illustrator 16.0.0, SVG Export Plug-In . SVG Version: 6.00 Build 0)  -->

<svg
   xmlns:osb="http://www.openswatchbook.org/uri/2009/osb"
   xmlns:dc="http://purl.org/dc/elements/1.1/"
   xmlns:cc="http://creativecommons.org/ns#"
   xmlns:rdf="http://www.w3.org/1999/02/22-rdf-syntax-ns#"
   xmlns:svg="http://www.w3.org/2000/svg"
   xmlns="http://www.w3.org/2000/svg"
   xmlns:xlink="http://www.w3.org/1999/xlink"
   xmlns:sodipodi="http://sodipodi.sourceforge.net/DTD/sodipodi-0.dtd"
   xmlns:inkscape="http://www.inkscape.org/namespaces/inkscape"
   version="1.1"
   id="Layer_1"
   x="0px"
   y="0px"
   width="512px"
   height="512px"
   viewBox="0 0 512 512"
   enable-background="new 0 0 512 512"
   xml:space="preserve"
   inkscape:version="0.91 r13725"
   sodipodi:docname="light-bulb-10.svg"><metadata
     id="metadata4854"><rdf:RDF><cc:Work
         rdf:about=""><dc:format>image/svg+xml</dc:format><dc:type
           rdf:resource="http://purl.org/dc/dcmitype/StillImage" /></cc:Work></rdf:RDF></metadata><defs
     id="defs4852"><linearGradient
       inkscape:collect="always"
       id="linearGradient6393"><stop
         style="stop-color:#d5ffff;stop-opacity:0.15340909"
         offset="0"
         id="stop6395" /><stop
         style="stop-color:#ccffff;stop-opacity:1"
         offset="1"
         id="stop6397" /></linearGradient><linearGradient
       id="linearGradient6304"
       osb:paint="solid"><stop
         style="stop-color:#780000;stop-opacity:1;"
         offset="0"
         id="stop6306" /></linearGradient><radialGradient
       inkscape:collect="always"
       xlink:href="#linearGradient6393"
       id="radialGradient6401"
       cx="163.25232"
       cy="243.13475"
       fx="163.25232"
       fy="243.13475"
       r="23.358659"
       gradientTransform="matrix(5.1567176,0.82793699,-0.9422039,5.8684168,-253.28848,-1388.71)"
       gradientUnits="userSpaceOnUse" /></defs><sodipodi:namedview
     pagecolor="#ffffff"
     bordercolor="#666666"
     borderopacity="1"
     objecttolerance="10"
     gridtolerance="10"
     guidetolerance="10"
     inkscape:pageopacity="0"
     inkscape:pageshadow="2"
     inkscape:window-width="1440"
     inkscape:window-height="818"
     id="namedview4850"
     showgrid="false"
     showguides="true"
     inkscape:guide-bbox="true"
     inkscape:zoom="1.865146"
     inkscape:cx="299.56843"
     inkscape:cy="274.02324"
     inkscape:window-x="0"
     inkscape:window-y="1"
     inkscape:window-maximized="1"
     inkscape:current-layer="Layer_1"><sodipodi:guide
       position="338.31131,434.28235"
       orientation="1,0"
       id="guide6461" /><sodipodi:guide
       position="276.11779,320.08217"
       orientation="0,1"
       id="guide6463" /></sodipodi:namedview><g
     id="light_bulb"
     transform="matrix(0.25,0,0,0.25,297.88435,120.38939)"
     inkscape:label="#g6482"><rect
       y="95.765709"
       x="242.05276"
       height="192"
       width="192"
       id="rect6459"
       style="opacity:1;fill:#cccccc;fill-opacity:0;fill-rule:nonzero;stroke:none;stroke-width:0.5534355;stroke-linecap:round;stroke-linejoin:bevel;stroke-miterlimit:4;stroke-dasharray:none;stroke-dashoffset:0;stroke-opacity:1" /><g
       transform="translate(0.53615104,0)"
       id="g6473"><path
         style="opacity:1;fill:url(#radialGradient6401);fill-opacity:1;fill-rule:nonzero;stroke:#000000;stroke-width:0.06629885;stroke-linecap:round;stroke-linejoin:bevel;stroke-miterlimit:4;stroke-dasharray:none;stroke-dashoffset:0;stroke-opacity:1"
         d="m 308.64382,228.30447 c -2.05584,-1.04506 -2.58822,-2.17934 -3.33759,-7.1109 -1.65214,-10.87241 -3.71105,-16.50412 -10.77002,-29.45903 -2.11845,-3.88787 -4.52464,-8.65659 -5.34713,-10.59713 -5.85636,-13.81752 -5.26945,-30.70015 1.54013,-44.30251 2.64925,-5.29198 5.35568,-8.96984 10.10359,-13.73018 4.8564,-4.86908 8.75472,-7.6727 14.44261,-10.38692 18.61011,-8.88055 40.08348,-6.22059 56.21949,6.96403 5.23851,4.28034 10.61744,11.04079 13.76416,17.2993 4.05378,8.06257 6.03816,18.50522 5.25175,27.63717 -0.9117,10.5871 -2.2184,14.29492 -10.20378,28.95355 -6.02083,11.05236 -8.43766,17.91644 -9.84937,27.97332 -0.57911,4.12564 -1.14065,5.54505 -2.6077,6.59149 l -1.03649,0.73933 -28.34275,0.0915 -28.34277,0.0915 -1.48413,-0.75445 z"
         id="path6312"
         inkscape:connector-curvature="0" /><path
         style="opacity:1;fill:#cccccc;fill-opacity:1;fill-rule:nonzero;stroke:none;stroke-width:0.2;stroke-linecap:round;stroke-linejoin:bevel;stroke-miterlimit:4;stroke-dasharray:none;stroke-dashoffset:0;stroke-opacity:1"
         d="m 306.36621,225.82852 c 31.63346,2.05728 31.6608,2.03841 63.31418,0.10553 l -4.1839,9.21782 -0.0829,9.65478 0.0413,6.25697 0.0414,9.82053 -6.71277,6.25694 -20.71839,1.45028 -21.17418,-1.78179 -7.25145,-6.38125 2e-5,-9.48902 0.0414,-6.38128 0.0343,-9.57189 z"
         id="rect6326"
         inkscape:connector-curvature="0"
         sodipodi:nodetypes="cccccccccccccc" /><path
         style="opacity:1;fill:#e6e6e6;fill-opacity:1;fill-rule:nonzero;stroke:#000000;stroke-width:0.06629885;stroke-linecap:round;stroke-linejoin:bevel;stroke-miterlimit:4;stroke-dasharray:none;stroke-dashoffset:0;stroke-opacity:1"
         d="m 324.79144,276.41622 c -1.9332,-0.45543 -3.68281,-1.47062 -4.87525,-2.82872 -1.25606,-1.43055 -2.99195,-4.91681 -2.99234,-6.00955 l -2.7e-4,-0.74586 20.63552,0.005 c 11.34955,0.002 20.83129,0.12926 21.07056,0.28096 0.35071,0.22236 0.30339,0.65045 -0.24411,2.20816 -1.21176,3.44766 -2.68819,5.05701 -6.09424,6.64283 l -1.72105,0.80132 -12.26529,-0.0301 c -6.7459,-0.0158 -12.82701,-0.16247 -13.51353,-0.32414 z"
         id="path6318"
         inkscape:connector-curvature="0" /><path
         style="opacity:1;fill:#e6e6e6;fill-opacity:1;fill-rule:nonzero;stroke:#000000;stroke-width:0.06115462;stroke-linecap:round;stroke-linejoin:bevel;stroke-miterlimit:4;stroke-dasharray:none;stroke-dashoffset:0;stroke-opacity:1"
         d="m 365.18367,246.26255 c -1.68213,-0.11796 -6.5257,0.282 -23.85067,1.76713 l -6.78596,0.58205 -0.58858,0.0465 -24.34599,1.90672 -1.18607,1.28631 c -2.56214,2.7687 -2.45238,6.30591 0.25138,8.08341 0.81327,0.5346 1.7262,0.48124 24.82615,-1.49891 l 6.96706,-0.59541 0.4075,-0.0332 24.34602,-1.90671 1.18586,-1.2819 c 2.5621,-2.76871 2.45256,-6.31033 -0.25122,-8.08782 -0.20315,-0.13356 -0.41478,-0.22892 -0.97548,-0.26826 z"
         id="path6339"
         inkscape:connector-curvature="0" /><use
         x="0"
         y="0"
         xlink:href="#path6339"
         id="use6443"
         transform="translate(0.11720092,-12.269469)"
         width="100%"
         height="100%" /><path
         inkscape:connector-curvature="0"
         id="path6445"
         d="m 365.06235,257.4472 c -17.02589,2.8673 -13.19102,4.91109 -1.45056,5.14333 2.34791,0.1227 5.12982,-3.09764 2.42603,-4.87514 -0.20315,-0.13355 -0.41478,-0.22891 -0.97547,-0.26826 z"
         style="opacity:1;fill:#e6e6e6;fill-opacity:1;fill-rule:nonzero;stroke:#000000;stroke-width:0.06115462;stroke-linecap:round;stroke-linejoin:bevel;stroke-miterlimit:4;stroke-dasharray:none;stroke-dashoffset:0;stroke-opacity:1"
         sodipodi:nodetypes="ccscc" /><path
         sodipodi:nodetypes="ccscc"
         style="opacity:1;fill:#e6e6e6;fill-opacity:1;fill-rule:nonzero;stroke:#000000;stroke-width:0.06115462;stroke-linecap:round;stroke-linejoin:bevel;stroke-miterlimit:4;stroke-dasharray:none;stroke-dashoffset:0;stroke-opacity:1"
         d="m 308.71701,229.49666 c 21.52364,0.61841 9.65704,4.09985 1.45055,5.14333 -2.34791,0.1227 -5.12981,-3.09764 -2.42603,-4.87514 0.20316,-0.13355 0.41478,-0.22892 0.97548,-0.26826 z"
         id="path6447"
         inkscape:connector-curvature="0" /></g></g></svg>