<?xml version="1.0" encoding="UTF-8" standalone="no"?>
<!-- Generator: Adobe Illustrator 16.0.0, SVG Export Plug-In . SVG Version: 6.00 Build 0)  -->

<svg
   xmlns:osb="http://www.openswatchbook.org/uri/2009/osb"
   xmlns:dc="http://purl.org/dc/elements/1.1/"
   xmlns:cc="http://creativecommons.org/ns#"
   xmlns:rdf="http://www.w3.org/1999/02/22-rdf-syntax-ns#"
   xmlns:svg="http://www.w3.org/2000/svg"
   xmlns="http://www.w3.org/2000/svg"
   xmlns:xlink="http://www.w3.org/1999/xlink"
   xmlns:sodipodi="http://sodipodi.sourceforge.net/DTD/sodipodi-0.dtd"
   xmlns:inkscape="http://www.inkscape.org/namespaces/inkscape"
   version="1.1"
   id="Layer_1"
   x="0px"
   y="0px"
   width="512px"
   height="512px"
   viewBox="0 0 512 512"
   enable-background="new 0 0 512 512"
   xml:space="preserve"
   inkscape:version="0.91 r13725"
   sodipodi:docname="light-bulb-10.svg"><metadata
     id="metadata4854"><rdf:RDF><cc:Work
         rdf:about=""><dc:format>image/svg+xml</dc:format><dc:type
           rdf:resource="http://purl.org/dc/dcmitype/StillImage" /></cc:Work></rdf:RDF></metadata><defs
     id="defs4852"><linearGradient
       id="linearGradient6663"
       inkscape:collect="always"><stop
         id="stop6665"
         offset="0"
         style="stop-color:#ffff00;stop-opacity:0.0867347" /><stop
         id="stop6667"
         offset="1"
         style="stop-color:#ffff00;stop-opacity:1" /></linearGradient><linearGradient
       inkscape:collect="always"
       id="linearGradient6571"><stop
         style="stop-color:#d5ffff;stop-opacity:0.15340909"
         offset="0"
         id="stop6573" /><stop
         style="stop-color:#87f2ff;stop-opacity:1"
         offset="1"
         id="stop6575" /></linearGradient><linearGradient
       id="linearGradient6304"
       osb:paint="solid"><stop
         style="stop-color:#780000;stop-opacity:1;"
         offset="0"
         id="stop6306" /></linearGradient><radialGradient
       inkscape:collect="always"
       xlink:href="#linearGradient6571"
       id="radialGradient6401"
       cx="164.24226"
       cy="237.25946"
       fx="164.24226"
       fy="237.25946"
       r="23.358659"
       gradientTransform="matrix(1.045726,-0.69379155,0.82146954,1.2381701,17.442187,-24.072557)"
       gradientUnits="userSpaceOnUse" /><radialGradient
       inkscape:collect="always"
       xlink:href="#linearGradient6663"
       id="radialGradient6661"
       gradientUnits="userSpaceOnUse"
       gradientTransform="matrix(1.3722184,-0.00319604,0.00369738,1.587464,-143.02177,-95.655616)"
       cx="382.59506"
       cy="165.75693"
       fx="382.59506"
       fy="165.75693"
       r="13.246757"
       spreadMethod="pad" /></defs><sodipodi:namedview
     pagecolor="#ffffff"
     bordercolor="#666666"
     borderopacity="1"
     objecttolerance="10"
     gridtolerance="10"
     guidetolerance="10"
     inkscape:pageopacity="0"
     inkscape:pageshadow="2"
     inkscape:window-width="1440"
     inkscape:window-height="818"
     id="namedview4850"
     showgrid="false"
     showguides="true"
     inkscape:guide-bbox="true"
     inkscape:zoom="10.550859"
     inkscape:cx="356.45009"
     inkscape:cy="349.09886"
     inkscape:window-x="4"
     inkscape:window-y="0"
     inkscape:window-maximized="0"
     inkscape:current-layer="Layer_1"><sodipodi:guide
       position="343.00524,377.41002"
       orientation="0,1"
       id="guide6683" /><sodipodi:guide
       position="356.65341,383.09676"
       orientation="1,0"
       id="guide6685" /></sodipodi:namedview><g
     id="light_bulb_off"
     inkscape:label="#g6586"><rect
       y="144.33081"
       x="358.39755"
       height="48"
       width="48"
       id="rect6459"
       style="opacity:1;fill:#cccccc;fill-opacity:0;fill-rule:nonzero;stroke:none;stroke-width:0.5534355;stroke-linecap:round;stroke-linejoin:bevel;stroke-miterlimit:4;stroke-dasharray:none;stroke-dashoffset:0;stroke-opacity:1" /><g
       id="g6577"><path
         style="opacity:1;fill:url(#radialGradient6401);fill-opacity:1;fill-rule:nonzero;stroke:#000000;stroke-width:0.117;stroke-linecap:round;stroke-linejoin:bevel;stroke-miterlimit:4;stroke-dasharray:none;stroke-dashoffset:0;stroke-opacity:1"
         d="m 375.17934,177.46551 c -0.51395,-0.26127 -0.64705,-0.54484 -0.83439,-1.77773 -0.41304,-2.7181 -0.92776,-4.12603 -2.69251,-7.36475 -0.52961,-0.97197 -1.13116,-2.16415 -1.33678,-2.64929 -1.46409,-3.45438 -1.31736,-7.67503 0.38503,-11.07563 0.66232,-1.32299 1.33892,-2.24245 2.5259,-3.43254 1.2141,-1.21727 2.18868,-1.91818 3.61065,-2.59673 4.65253,-2.22014 10.02087,-1.55515 14.05487,1.74101 1.30963,1.07008 2.65436,2.7602 3.44105,4.32482 1.01344,2.01564 1.50954,4.62631 1.31293,6.9093 -0.22792,2.64677 -0.5546,3.57373 -2.55094,7.23838 -1.50521,2.76309 -2.10942,4.47911 -2.46234,6.99333 -0.14478,1.03141 -0.28517,1.38626 -0.65193,1.64788 l -0.25912,0.18483 -7.08569,0.0229 -7.08569,0.0229 -0.37104,-0.18861 z"
         id="path6312"
         inkscape:connector-curvature="0" /><path
         style="opacity:1;fill:#999999;fill-opacity:1;fill-rule:nonzero;stroke:none;stroke-width:0.2;stroke-linecap:round;stroke-linejoin:bevel;stroke-miterlimit:4;stroke-dasharray:none;stroke-dashoffset:0;stroke-opacity:1"
         d="m 374.60994,176.84652 c 7.90837,0.51432 7.9152,0.5096 15.82855,0.0264 l -1.04598,2.30446 -0.0207,2.41369 0.0103,1.56424 0.0104,2.45514 -1.67819,1.56423 -5.1796,0.36257 -5.29354,-0.44544 -1.81287,-1.59532 10e-6,-2.37225 0.0104,-1.59532 0.009,-2.39298 z"
         id="rect6326"
         inkscape:connector-curvature="0"
         sodipodi:nodetypes="cccccccccccccc" /><path
         style="opacity:1;fill:#666666;fill-opacity:1;fill-rule:nonzero;stroke:#000000;stroke-width:0.01657471;stroke-linecap:round;stroke-linejoin:bevel;stroke-miterlimit:4;stroke-dasharray:none;stroke-dashoffset:0;stroke-opacity:1"
         d="m 379.21625,189.49344 c -0.4833,-0.11385 -0.9207,-0.36765 -1.21881,-0.70717 -0.31402,-0.35764 -0.74799,-1.22921 -0.74809,-1.50239 l -7e-5,-0.18647 5.15888,0.001 c 2.83739,5e-4 5.20783,0.0323 5.26765,0.0702 0.0877,0.0556 0.0758,0.16262 -0.061,0.55204 -0.30294,0.86192 -0.67205,1.26426 -1.52356,1.66071 l -0.43027,0.20033 -3.06632,-0.008 c -1.68647,-0.004 -3.20675,-0.0406 -3.37838,-0.081 z"
         id="path6318"
         inkscape:connector-curvature="0" /><path
         style="opacity:1;fill:#666666;fill-opacity:1;fill-rule:nonzero;stroke:#000000;stroke-width:0.01528865;stroke-linecap:round;stroke-linejoin:bevel;stroke-miterlimit:4;stroke-dasharray:none;stroke-dashoffset:0;stroke-opacity:1"
         d="m 389.31431,181.95503 c -0.42054,-0.0295 -1.63143,0.0705 -5.96267,0.44178 l -1.69649,0.14551 -0.14714,0.0116 -6.0865,0.47668 -0.29652,0.32158 c -0.64053,0.69217 -0.61309,1.57647 0.0628,2.02085 0.20332,0.13365 0.43156,0.12031 6.20654,-0.37473 l 1.74177,-0.14885 0.10187,-0.008 6.08651,-0.47668 0.29646,-0.32048 c 0.64053,-0.69217 0.61314,-1.57758 -0.0628,-2.02195 -0.0508,-0.0334 -0.1037,-0.0572 -0.24387,-0.0671 z"
         id="path6339"
         inkscape:connector-curvature="0" /><use
         x="0"
         y="0"
         xlink:href="#path6339"
         id="use6443"
         transform="translate(0.02930023,-3.0673673)"
         width="100%"
         height="100%"
         style="fill:#666666" /><path
         inkscape:connector-curvature="0"
         id="path6445"
         d="m 389.28398,184.75119 c -4.25647,0.71682 -3.29776,1.22777 -0.36264,1.28583 0.58698,0.0307 1.28245,-0.77441 0.60651,-1.21878 -0.0508,-0.0334 -0.1037,-0.0572 -0.24387,-0.0671 z"
         style="opacity:1;fill:#666666;fill-opacity:1;fill-rule:nonzero;stroke:#000000;stroke-width:0.01528865;stroke-linecap:round;stroke-linejoin:bevel;stroke-miterlimit:4;stroke-dasharray:none;stroke-dashoffset:0;stroke-opacity:1"
         sodipodi:nodetypes="ccscc" /><path
         sodipodi:nodetypes="ccscc"
         style="opacity:1;fill:#666666;fill-opacity:1;fill-rule:nonzero;stroke:#000000;stroke-width:0.01528865;stroke-linecap:round;stroke-linejoin:bevel;stroke-miterlimit:4;stroke-dasharray:none;stroke-dashoffset:0;stroke-opacity:1"
         d="m 375.19764,177.76355 c 5.38091,0.15461 2.41426,1.02497 0.36264,1.28584 -0.58698,0.0307 -1.28245,-0.77441 -0.60651,-1.21879 0.0508,-0.0334 0.1037,-0.0572 0.24387,-0.0671 z"
         id="path6447"
         inkscape:connector-curvature="0" /></g></g><g
     inkscape:label="#g6586"
     id="light_bulb_on"
     transform="translate(-53.347029,-0.26807552)"><rect
       style="opacity:1;fill:#cccccc;fill-opacity:0;fill-rule:nonzero;stroke:none;stroke-width:0.5534355;stroke-linecap:round;stroke-linejoin:bevel;stroke-miterlimit:4;stroke-dasharray:none;stroke-dashoffset:0;stroke-opacity:1"
       id="rect6643"
       width="48"
       height="48"
       x="358.39755"
       y="144.33081" /><g
       id="g6645"><path
         inkscape:connector-curvature="0"
         id="path6647"
         d="m 375.17934,177.46551 c -0.51395,-0.26127 -0.64705,-0.54484 -0.83439,-1.77773 -0.41304,-2.7181 -0.92776,-4.12603 -2.69251,-7.36475 -0.52961,-0.97197 -1.13116,-2.16415 -1.33678,-2.64929 -1.46409,-3.45438 -1.31736,-7.67503 0.38503,-11.07563 0.66232,-1.32299 1.33892,-2.24245 2.5259,-3.43254 1.2141,-1.21727 2.18868,-1.91818 3.61065,-2.59673 4.65253,-2.22014 10.02087,-1.55515 14.05487,1.74101 1.30963,1.07008 2.65436,2.7602 3.44105,4.32482 1.01344,2.01564 1.50954,4.62631 1.31293,6.9093 -0.22792,2.64677 -0.5546,3.57373 -2.55094,7.23838 -1.50521,2.76309 -2.10942,4.47911 -2.46234,6.99333 -0.14478,1.03141 -0.28517,1.38626 -0.65193,1.64788 l -0.25912,0.18483 -7.08569,0.0229 -7.08569,0.0229 -0.37104,-0.18861 z"
         style="opacity:1;fill:url(#radialGradient6661);fill-opacity:1;fill-rule:nonzero;stroke:#000000;stroke-width:0.117;stroke-linecap:round;stroke-linejoin:bevel;stroke-miterlimit:4;stroke-dasharray:none;stroke-dashoffset:0;stroke-opacity:1" /><path
         sodipodi:nodetypes="cccccccccccccc"
         inkscape:connector-curvature="0"
         id="path6649"
         d="m 374.60994,176.84652 c 7.90837,0.51432 7.9152,0.5096 15.82855,0.0264 l -1.04598,2.30446 -0.0207,2.41369 0.0103,1.56424 0.0104,2.45514 -1.67819,1.56423 -5.1796,0.36257 -5.29354,-0.44544 -1.81287,-1.59532 10e-6,-2.37225 0.0104,-1.59532 0.009,-2.39298 z"
         style="opacity:1;fill:#999999;fill-opacity:1;fill-rule:nonzero;stroke:none;stroke-width:0.2;stroke-linecap:round;stroke-linejoin:bevel;stroke-miterlimit:4;stroke-dasharray:none;stroke-dashoffset:0;stroke-opacity:1" /><path
         inkscape:connector-curvature="0"
         id="path6651"
         d="m 379.21625,189.49344 c -0.4833,-0.11385 -0.9207,-0.36765 -1.21881,-0.70717 -0.31402,-0.35764 -0.74799,-1.22921 -0.74809,-1.50239 l -7e-5,-0.18647 5.15888,0.001 c 2.83739,5e-4 5.20783,0.0323 5.26765,0.0702 0.0877,0.0556 0.0758,0.16262 -0.061,0.55204 -0.30294,0.86192 -0.67205,1.26426 -1.52356,1.66071 l -0.43027,0.20033 -3.06632,-0.008 c -1.68647,-0.004 -3.20675,-0.0406 -3.37838,-0.081 z"
         style="opacity:1;fill:#666666;fill-opacity:1;fill-rule:nonzero;stroke:#000000;stroke-width:0.01657471;stroke-linecap:round;stroke-linejoin:bevel;stroke-miterlimit:4;stroke-dasharray:none;stroke-dashoffset:0;stroke-opacity:1" /><path
         inkscape:connector-curvature="0"
         id="path6653"
         d="m 389.31431,181.95503 c -0.42054,-0.0295 -1.63143,0.0705 -5.96267,0.44178 l -1.69649,0.14551 -0.14714,0.0116 -6.0865,0.47668 -0.29652,0.32158 c -0.64053,0.69217 -0.61309,1.57647 0.0628,2.02085 0.20332,0.13365 0.43156,0.12031 6.20654,-0.37473 l 1.74177,-0.14885 0.10187,-0.008 6.08651,-0.47668 0.29646,-0.32048 c 0.64053,-0.69217 0.61314,-1.57758 -0.0628,-2.02195 -0.0508,-0.0334 -0.1037,-0.0572 -0.24387,-0.0671 z"
         style="opacity:1;fill:#666666;fill-opacity:1;fill-rule:nonzero;stroke:#000000;stroke-width:0.01528865;stroke-linecap:round;stroke-linejoin:bevel;stroke-miterlimit:4;stroke-dasharray:none;stroke-dashoffset:0;stroke-opacity:1" /><use
         style="fill:#666666"
         height="100%"
         width="100%"
         transform="translate(0.02930023,-3.0673673)"
         id="use6655"
         xlink:href="#path6339"
         y="0"
         x="0" /><path
         sodipodi:nodetypes="ccscc"
         style="opacity:1;fill:#666666;fill-opacity:1;fill-rule:nonzero;stroke:#000000;stroke-width:0.01528865;stroke-linecap:round;stroke-linejoin:bevel;stroke-miterlimit:4;stroke-dasharray:none;stroke-dashoffset:0;stroke-opacity:1"
         d="m 389.28398,184.75119 c -4.25647,0.71682 -3.29776,1.22777 -0.36264,1.28583 0.58698,0.0307 1.28245,-0.77441 0.60651,-1.21878 -0.0508,-0.0334 -0.1037,-0.0572 -0.24387,-0.0671 z"
         id="path6657"
         inkscape:connector-curvature="0" /><path
         inkscape:connector-curvature="0"
         id="path6659"
         d="m 375.19764,177.76355 c 5.38091,0.15461 2.41426,1.02497 0.36264,1.28584 -0.58698,0.0307 -1.28245,-0.77441 -0.60651,-1.21879 0.0508,-0.0334 0.1037,-0.0572 0.24387,-0.0671 z"
         style="opacity:1;fill:#666666;fill-opacity:1;fill-rule:nonzero;stroke:#000000;stroke-width:0.01528865;stroke-linecap:round;stroke-linejoin:bevel;stroke-miterlimit:4;stroke-dasharray:none;stroke-dashoffset:0;stroke-opacity:1"
         sodipodi:nodetypes="ccscc" /></g></g><path
     style="opacity:1;fill:none;fill-opacity:1;fill-rule:nonzero;stroke:#d9cfcf;stroke-width:0.3629711;stroke-linecap:round;stroke-linejoin:round;stroke-miterlimit:4;stroke-dasharray:none;stroke-dashoffset:0;stroke-opacity:1"
     d="m 380.8172,177.19359 -2.33089,-6.99661 -0.78159,-5.30033 1.43663,2.84348 0.48384,-2.60529 0.60294,2.60529 0.48383,-2.60529 0.60295,2.60529 0.48383,-2.60529 0.60294,2.60529 0.48384,-2.60529 0.60293,2.60529 0.48384,-2.60529 0.60294,2.60529 0.48384,-2.60529 0.60294,2.60529 1.30264,-2.90303 -0.81136,5.41899 -2.17355,6.96727"
     id="rect6669"
     inkscape:connector-curvature="0"
     sodipodi:nodetypes="ccccccccccccccccccc" /><path
     sodipodi:nodetypes="ccccccccccccccccccc"
     inkscape:connector-curvature="0"
     id="path6687"
     d="m 327.63654,176.7197 -2.33089,-6.99661 -0.78159,-5.30033 1.43663,2.84348 0.48384,-2.60529 0.60294,2.60529 0.48383,-2.60529 0.60295,2.60529 0.48383,-2.60529 0.60294,2.60529 0.48384,-2.60529 0.60293,2.60529 0.48384,-2.60529 0.60294,2.60529 0.48384,-2.60529 0.60294,2.60529 1.30264,-2.90303 -0.81136,5.41899 -2.17355,6.96727"
     style="opacity:1;fill:none;fill-opacity:1;fill-rule:nonzero;stroke:#ffff00;stroke-width:0.3629711;stroke-linecap:round;stroke-linejoin:round;stroke-miterlimit:4;stroke-dasharray:none;stroke-dashoffset:0;stroke-opacity:1" /></svg>